<svg width="156" height="41" viewBox="0 0 156 41" fill="none" xmlns="http://www.w3.org/2000/svg">
<path d="M10.0837 20.4999L20.0837 10.4999L30.0837 20.4999L20.0837 30.4999L10.0837 20.4999Z" fill="#CAFF33"/>
<path d="M36.7503 13.8333L30.0837 20.4999V10.4999H20.0837L26.7503 3.83325H36.7503V13.8333Z" fill="#CAFF33"/>
<path d="M36.7503 27.1666L30.0837 20.4999V30.4999H20.0837L26.7503 37.1666H36.7503V27.1666Z" fill="#CAFF33"/>
<path d="M3.41699 27.1666L10.0837 20.4999V30.4999H20.0837L13.417 37.1666H3.41699L3.41699 27.1666Z" fill="#CAFF33"/>
<path d="M3.41699 13.8333L10.0837 20.4999V10.4999H20.0837L13.417 3.83325H3.41699L3.41699 13.8333Z" fill="#CAFF33"/>
<path d="M59.4372 11.8333L53.292 22.6841V29.8323H50.3957V22.6841L44.2505 11.8333H47.5497L51.8564 19.8043L56.1379 11.8333H59.4372Z" fill="white"/>
<path d="M64.5919 30.1666C62.745 30.1666 61.1751 29.5152 59.8822 28.2124C58.5894 26.9096 57.943 25.3068 57.943 23.4041C57.943 21.5013 58.5894 19.8985 59.8822 18.5958C61.1751 17.293 62.745 16.6416 64.5919 16.6416C66.4556 16.6416 68.0255 17.293 69.3015 18.5958C70.5943 19.8985 71.2408 21.5013 71.2408 23.4041C71.2408 25.3068 70.5943 26.9096 69.3015 28.2124C68.0255 29.5152 66.4556 30.1666 64.5919 30.1666ZM61.7963 26.3096C62.5519 27.081 63.4837 27.4667 64.5919 27.4667C65.7 27.4667 66.6319 27.081 67.3874 26.3096C68.143 25.5383 68.5208 24.5697 68.5208 23.4041C68.5208 22.2384 68.143 21.2699 67.3874 20.4985C66.6319 19.7271 65.7 19.3414 64.5919 19.3414C63.4837 19.3414 62.5519 19.7271 61.7963 20.4985C61.0408 21.2699 60.663 22.2384 60.663 23.4041C60.663 24.5697 61.0408 25.5383 61.7963 26.3096Z" fill="white"/>
<path d="M82.1877 16.9758H84.9077V29.8323H82.1877V28.1867C81.365 29.5066 80.0637 30.1666 78.284 30.1666C76.84 30.1666 75.6731 29.6952 74.7832 28.7524C73.8933 27.8096 73.4484 26.5153 73.4484 24.8697V16.9758H76.1684V24.5869C76.1684 25.5468 76.4203 26.2839 76.924 26.7982C77.4277 27.3124 78.1161 27.5696 78.9891 27.5696C79.9462 27.5696 80.7185 27.2696 81.3062 26.6696C81.8938 26.0525 82.1877 25.1183 82.1877 23.8669V16.9758Z" fill="white"/>
<path d="M90.8083 19.1357C91.4967 17.5415 92.7895 16.7444 94.6868 16.7444V19.7528C93.6458 19.6843 92.7392 19.9414 91.9668 20.5242C91.1945 21.0899 90.8083 22.0327 90.8083 23.3527V29.8323H88.0883V16.9758H90.8083V19.1357Z" fill="white"/>
<path d="M107.249 20.4985C108.021 20.9099 108.626 21.4756 109.062 22.1956C109.499 22.9155 109.717 23.7469 109.717 24.6897C109.717 26.1639 109.205 27.3896 108.181 28.3667C107.157 29.3438 105.906 29.8323 104.428 29.8323H96.8728V11.8333H103.874C105.318 11.8333 106.536 12.3132 107.526 13.2732C108.534 14.216 109.037 15.3988 109.037 16.8216C109.037 18.3815 108.441 19.6071 107.249 20.4985ZM103.874 14.6103H99.7691V19.3414H103.874C104.512 19.3414 105.05 19.1186 105.486 18.6729C105.923 18.2101 106.141 17.6444 106.141 16.9758C106.141 16.3073 105.923 15.7502 105.486 15.3045C105.05 14.8417 104.512 14.6103 103.874 14.6103ZM104.428 27.0553C105.1 27.0553 105.662 26.8153 106.116 26.3354C106.586 25.8382 106.821 25.2383 106.821 24.5355C106.821 23.8326 106.586 23.2412 106.116 22.7613C105.662 22.2641 105.1 22.0156 104.428 22.0156H99.7691V27.0553H104.428Z" fill="white"/>
<path d="M122.165 16.9758H124.885V29.8323H122.165V27.981C121.14 29.4381 119.671 30.1666 117.757 30.1666C116.028 30.1666 114.55 29.5152 113.325 28.2124C112.099 26.8925 111.486 25.2897 111.486 23.4041C111.486 21.5013 112.099 19.8985 113.325 18.5958C114.55 17.293 116.028 16.6416 117.757 16.6416C119.671 16.6416 121.14 17.3615 122.165 18.8015V16.9758ZM115.339 26.3611C116.095 27.1325 117.044 27.5182 118.185 27.5182C119.327 27.5182 120.276 27.1325 121.031 26.3611C121.787 25.5725 122.165 24.5869 122.165 23.4041C122.165 22.2213 121.787 21.2442 121.031 20.4728C120.276 19.6843 119.327 19.29 118.185 19.29C117.044 19.29 116.095 19.6843 115.339 20.4728C114.584 21.2442 114.206 22.2213 114.206 23.4041C114.206 24.5869 114.584 25.5725 115.339 26.3611Z" fill="white"/>
<path d="M134.679 16.6416C136.123 16.6416 137.29 17.113 138.179 18.0558C139.069 18.9986 139.514 20.2928 139.514 21.9384V29.8323H136.794V22.2213C136.794 21.2613 136.542 20.5242 136.039 20.01C135.535 19.4957 134.847 19.2386 133.974 19.2386C133.017 19.2386 132.244 19.5471 131.657 20.1642C131.069 20.7642 130.775 21.6899 130.775 22.9412V29.8323H128.055V16.9758H130.775V18.6215C131.598 17.3015 132.899 16.6416 134.679 16.6416Z" fill="white"/>
<path d="M155.917 29.8323H152.467L145.516 21.2699V29.8323H142.619V11.8333H145.516V19.9071L152.215 11.8333H155.665L148.538 20.6014L155.917 29.8323Z" fill="white"/>
</svg>
